<?xml version="1.0" encoding="UTF-8"?>
<!DOCTYPE svg PUBLIC "-//W3C//DTD SVG 1.1//EN" "http://www.w3.org/Graphics/SVG/1.1/DTD/svg11.dtd">
<svg xmlns="http://www.w3.org/2000/svg" version="1.1" width="259px" height="66px" style="shape-rendering:geometricPrecision; text-rendering:geometricPrecision; image-rendering:optimizeQuality; fill-rule:evenodd; clip-rule:evenodd" xmlns:xlink="http://www.w3.org/1999/xlink">
<g><path style="opacity:0.955" fill="#d7f19b" d="M 154.5,-0.5 C 160.167,-0.5 165.833,-0.5 171.5,-0.5C 176.927,0.700305 182.26,2.53364 187.5,5C 185.2,10.0676 183.2,15.2343 181.5,20.5C 175.495,18.3331 169.328,16.6665 163,15.5C 160.474,15.5651 158.141,16.2317 156,17.5C 155.217,19.4335 155.717,20.9335 157.5,22C 165.687,23.7133 173.687,26.0466 181.5,29C 189.114,34.2078 191.614,41.3745 189,50.5C 184.952,58.7182 178.452,63.7182 169.5,65.5C 162.833,65.5 156.167,65.5 149.5,65.5C 145.623,64.359 141.623,63.1923 137.5,62C 135.445,61.3128 133.779,60.1461 132.5,58.5C 134.565,53.3709 136.898,48.3709 139.5,43.5C 147.787,48.3245 156.62,49.9912 166,48.5C 169.12,46.1632 168.62,44.3298 164.5,43C 155.677,41.714 147.344,39.0473 139.5,35C 135.181,31.5291 133.181,27.0291 133.5,21.5C 133.179,12.9829 136.845,6.81621 144.5,3C 147.98,1.89744 151.313,0.73077 154.5,-0.5 Z"/></g>
<g><path style="opacity:0.988" fill="#d7f19b" d="M -0.5,1.5 C 16.8333,1.5 34.1667,1.5 51.5,1.5C 51.5,6.83333 51.5,12.1667 51.5,17.5C 41.1667,17.5 30.8333,17.5 20.5,17.5C 20.5,19.8333 20.5,22.1667 20.5,24.5C 29.5,24.5 38.5,24.5 47.5,24.5C 47.5,29.8333 47.5,35.1667 47.5,40.5C 38.5,40.5 29.5,40.5 20.5,40.5C 20.5,43.1667 20.5,45.8333 20.5,48.5C 31.1667,48.5 41.8333,48.5 52.5,48.5C 52.5,53.8333 52.5,59.1667 52.5,64.5C 34.8333,64.5 17.1667,64.5 -0.5,64.5C -0.5,43.5 -0.5,22.5 -0.5,1.5 Z"/></g>
<g><path style="opacity:0.964" fill="#d7f19b" d="M 81.5,1.5 C 88.8409,1.33368 96.1742,1.50034 103.5,2C 112.833,22.6667 122.167,43.3333 131.5,64C 123.833,64.6667 116.167,64.6667 108.5,64C 106.67,60.6763 105.337,57.1763 104.5,53.5C 96.5,53.5 88.5,53.5 80.5,53.5C 79.6988,57.2347 78.6988,60.9014 77.5,64.5C 69.8045,64.8308 62.1378,64.4975 54.5,63.5C 63.8948,42.9744 72.8948,22.3077 81.5,1.5 Z M 91.5,24.5 C 94.6216,28.1449 96.6216,32.4783 97.5,37.5C 94.1016,37.8204 90.7683,37.487 87.5,36.5C 89.4138,32.6772 90.7471,28.6772 91.5,24.5 Z"/></g>
<g><path style="opacity:0.956" fill="#d7f19b" d="M 258.5,1.5 C 258.5,1.83333 258.5,2.16667 258.5,2.5C 250.19,15.1045 242.356,28.1045 235,41.5C 234.5,49.1594 234.334,56.8261 234.5,64.5C 227.167,64.5 219.833,64.5 212.5,64.5C 212.666,56.8261 212.5,49.1594 212,41.5C 204.544,28.0855 196.711,14.9188 188.5,2C 196.521,1.16839 204.521,1.33506 212.5,2.5C 216.264,9.03839 220.264,15.3717 224.5,21.5C 228.698,15.1322 232.698,8.63222 236.5,2C 243.826,1.50034 251.159,1.33368 258.5,1.5 Z"/></g>
</svg>
