<?xml version="1.0" encoding="UTF-8"?>
<!DOCTYPE svg PUBLIC "-//W3C//DTD SVG 1.1//EN" "http://www.w3.org/Graphics/SVG/1.1/DTD/svg11.dtd">
<svg xmlns="http://www.w3.org/2000/svg" version="1.1" width="285px" height="63px" style="shape-rendering:geometricPrecision; text-rendering:geometricPrecision; image-rendering:optimizeQuality; fill-rule:evenodd; clip-rule:evenodd" xmlns:xlink="http://www.w3.org/1999/xlink">
<g><path style="opacity:0.973" fill="#ddd4f5" d="M -0.5,-0.5 C 6.83333,-0.5 14.1667,-0.5 21.5,-0.5C 21.5,7.16667 21.5,14.8333 21.5,22.5C 27.8333,22.5 34.1667,22.5 40.5,22.5C 40.5,14.8333 40.5,7.16667 40.5,-0.5C 47.8333,-0.5 55.1667,-0.5 62.5,-0.5C 62.5,20.5 62.5,41.5 62.5,62.5C 55.1667,62.5 47.8333,62.5 40.5,62.5C 40.5,54.8333 40.5,47.1667 40.5,39.5C 34.1667,39.5 27.8333,39.5 21.5,39.5C 21.5,47.1667 21.5,54.8333 21.5,62.5C 14.1667,62.5 6.83333,62.5 -0.5,62.5C -0.5,41.5 -0.5,20.5 -0.5,-0.5 Z"/></g>
<g><path style="opacity:0.964" fill="#ddd4f5" d="M 93.5,-0.5 C 100.833,-0.5 108.167,-0.5 115.5,-0.5C 124.833,20.5 134.167,41.5 143.5,62.5C 135.833,62.5 128.167,62.5 120.5,62.5C 118.771,58.9795 117.438,55.3128 116.5,51.5C 108.5,51.5 100.5,51.5 92.5,51.5C 91.6988,55.2347 90.6988,58.9014 89.5,62.5C 81.8333,62.5 74.1667,62.5 66.5,62.5C 75.6948,41.5821 84.6948,20.5821 93.5,-0.5 Z M 103.5,22.5 C 106.622,26.1449 108.622,30.4783 109.5,35.5C 106.102,35.8204 102.768,35.487 99.5,34.5C 101.414,30.6772 102.747,26.6772 103.5,22.5 Z"/></g>
<g><path style="opacity:0.971" fill="#ddd4f5" d="M 148.5,-0.5 C 161.167,-0.5 173.833,-0.5 186.5,-0.5C 204.611,4.04582 211.111,15.3792 206,33.5C 204.167,38 201,41.1667 196.5,43C 200.968,49.4426 205.301,55.9426 209.5,62.5C 201.5,62.5 193.5,62.5 185.5,62.5C 182.344,57.5282 179.177,52.5282 176,47.5C 174.301,46.5939 172.467,46.2606 170.5,46.5C 170.5,51.8333 170.5,57.1667 170.5,62.5C 163.167,62.5 155.833,62.5 148.5,62.5C 148.5,41.5 148.5,20.5 148.5,-0.5 Z M 170.5,15.5 C 176.039,14.6384 180.872,15.9718 185,19.5C 186.645,24.4754 185.145,27.9754 180.5,30C 177.183,30.4983 173.85,30.665 170.5,30.5C 170.5,25.5 170.5,20.5 170.5,15.5 Z"/></g>
<g><path style="opacity:0.972" fill="#ddd4f5" d="M 217.5,-0.5 C 230.833,-0.5 244.167,-0.5 257.5,-0.5C 271.268,2.20581 280.268,10.2058 284.5,23.5C 284.5,28.5 284.5,33.5 284.5,38.5C 280.268,51.7942 271.268,59.7942 257.5,62.5C 244.167,62.5 230.833,62.5 217.5,62.5C 217.5,41.5 217.5,20.5 217.5,-0.5 Z M 239.5,16.5 C 245.38,16.0484 251.047,16.8817 256.5,19C 264.5,27 264.5,35 256.5,43C 251.047,45.1183 245.38,45.9516 239.5,45.5C 239.5,35.8333 239.5,26.1667 239.5,16.5 Z"/></g>
</svg>
