<?xml version="1.0" encoding="UTF-8"?>
<!DOCTYPE svg PUBLIC "-//W3C//DTD SVG 1.1//EN" "http://www.w3.org/Graphics/SVG/1.1/DTD/svg11.dtd">
<svg xmlns="http://www.w3.org/2000/svg" version="1.1" width="410px" height="65px" style="shape-rendering:geometricPrecision; text-rendering:geometricPrecision; image-rendering:optimizeQuality; fill-rule:evenodd; clip-rule:evenodd" xmlns:xlink="http://www.w3.org/1999/xlink">
<g><path style="opacity:0.961" fill="#97e7d7" d="M 259.5,-0.5 C 266.833,-0.5 274.167,-0.5 281.5,-0.5C 281.333,12.1711 281.5,24.8377 282,37.5C 284.463,47.7433 289.796,49.7433 298,43.5C 298.973,41.6079 299.64,39.6079 300,37.5C 300.5,24.8377 300.667,12.1711 300.5,-0.5C 307.5,-0.5 314.5,-0.5 321.5,-0.5C 321.938,15.5573 321.438,31.5573 320,47.5C 315.962,56.7179 309.129,62.3845 299.5,64.5C 293.5,64.5 287.5,64.5 281.5,64.5C 268.944,61.4392 261.778,53.4392 260,40.5C 259.5,26.8374 259.333,13.1707 259.5,-0.5 Z"/></g>
<g><path style="opacity:0.965" fill="#97e7d7" d="M -0.5,0.5 C 5.50924,0.333847 11.5092,0.500513 17.5,1C 24.2916,11.4154 30.9582,21.9154 37.5,32.5C 44.0842,22.3337 50.4176,12.0003 56.5,1.5C 62.7985,0.503666 69.1318,0.170332 75.5,0.5C 75.5,21.5 75.5,42.5 75.5,63.5C 68.8333,63.5 62.1667,63.5 55.5,63.5C 55.6664,54.8269 55.4998,46.1603 55,37.5C 51,44.1667 47,50.8333 43,57.5C 41.2622,58.1271 39.4289,58.4604 37.5,58.5C 34.9886,58.712 32.8219,58.0454 31,56.5C 27.3333,50.5 23.6667,44.5 20,38.5C 19.5003,46.8267 19.3336,55.16 19.5,63.5C 12.8333,63.5 6.16667,63.5 -0.5,63.5C -0.5,42.5 -0.5,21.5 -0.5,0.5 Z"/></g>
<g><path style="opacity:0.988" fill="#97e7d7" d="M 87.5,0.5 C 104.833,0.5 122.167,0.5 139.5,0.5C 139.5,5.83333 139.5,11.1667 139.5,16.5C 129.167,16.5 118.833,16.5 108.5,16.5C 108.5,18.8333 108.5,21.1667 108.5,23.5C 117.5,23.5 126.5,23.5 135.5,23.5C 135.5,28.8333 135.5,34.1667 135.5,39.5C 126.5,39.5 117.5,39.5 108.5,39.5C 108.5,42.1667 108.5,44.8333 108.5,47.5C 119.167,47.5 129.833,47.5 140.5,47.5C 140.5,52.8333 140.5,58.1667 140.5,63.5C 122.833,63.5 105.167,63.5 87.5,63.5C 87.5,42.5 87.5,21.5 87.5,0.5 Z"/></g>
<g><path style="opacity:0.972" fill="#97e7d7" d="M 149.5,0.5 C 162.837,0.333437 176.171,0.500104 189.5,1C 211.894,6.59824 220.394,20.7649 215,43.5C 210.005,54.4849 201.505,60.9849 189.5,63C 176.171,63.4999 162.837,63.6666 149.5,63.5C 149.5,42.5 149.5,21.5 149.5,0.5 Z M 171.5,17.5 C 177.38,17.0484 183.047,17.8817 188.5,20C 196.5,28 196.5,36 188.5,44C 183.047,46.1183 177.38,46.9516 171.5,46.5C 171.5,36.8333 171.5,27.1667 171.5,17.5 Z"/></g>
<g><path style="opacity:0.967" fill="#97e7d7" d="M 226.5,0.5 C 233.833,0.5 241.167,0.5 248.5,0.5C 248.5,21.5 248.5,42.5 248.5,63.5C 241.167,63.5 233.833,63.5 226.5,63.5C 226.5,42.5 226.5,21.5 226.5,0.5 Z"/></g>
<g><path style="opacity:0.965" fill="#97e7d7" d="M 409.5,0.5 C 409.5,21.5 409.5,42.5 409.5,63.5C 402.833,63.5 396.167,63.5 389.5,63.5C 389.666,54.8269 389.5,46.1603 389,37.5C 385,44.1667 381,50.8333 377,57.5C 375.262,58.1271 373.429,58.4604 371.5,58.5C 368.989,58.712 366.822,58.0454 365,56.5C 361.333,50.5 357.667,44.5 354,38.5C 353.5,46.8267 353.334,55.16 353.5,63.5C 346.833,63.5 340.167,63.5 333.5,63.5C 333.5,42.5 333.5,21.5 333.5,0.5C 339.509,0.333847 345.509,0.500513 351.5,1C 358.292,11.4154 364.958,21.9154 371.5,32.5C 378.084,22.3337 384.418,12.0003 390.5,1.5C 396.798,0.503666 403.132,0.170332 409.5,0.5 Z"/></g>
</svg>
